<?xml version="1.0" encoding="UTF-8"?>
<svg xmlns="http://www.w3.org/2000/svg" version="1.1" viewBox="0 0 841.9 246">
  <defs>
    <style>
      .cls-1 {
        fill: #fff;
      }

      .cls-2 {
        fill: #23a7e0;
      }
    </style>
  </defs>
  <!-- Generator: Adobe Illustrator 28.6.0, SVG Export Plug-In . SVG Version: 1.2.0 Build 709)  -->
  <g>
    <g id="Layer_1">
      <g>
        <g>
          <path class="cls-1" d="M532.8,206.2c.6,0,.8.3.8.8v3.8c0,.6-.3.8-.8.8h-12v20.4c0,.5-.3.8-.8.8h-4.2c-.5,0-.8-.3-.8-.8v-20.4h-12c-.6,0-.8-.3-.8-.8v-3.8c0-.5.3-.8.8-.8h29.8Z"/>
          <path class="cls-1" d="M555.6,212c1.3,0,2.4.1,3.2.3s1.6.6,2,1c.5.5.8,1.1,1,2,.2.8.3,1.8.3,2.9v3.6c0,.8-.2,1.4-.5,1.7s-.9.5-1.7.5h-19.3v.9c0,1.1.3,2.1.8,2.6.6.5,1.7.8,3.3.8h16c.4,0,.7.2.7.7v3.2c0,.4-.2.7-.7.7h-16.5c-1.8,0-3.1-.1-4.4-.4-1.1-.3-2.1-.7-2.8-1.4-.7-.6-1.3-1.5-1.5-2.4-.3-.9-.4-2.2-.4-3.5v-5.5c0-1.4.1-2.5.4-3.5.3-.9.8-1.8,1.5-2.4.7-.6,1.7-1,2.8-1.4,1.1-.3,2.6-.4,4.4-.4l11.1-.2h0ZM540.8,220.7h15.4c.4,0,.6-.2.6-.6v-1.6c0-.8-.2-1.4-.5-1.7s-.9-.5-1.9-.5h-9.6c-1.7,0-2.8.2-3.3.7s-.8,1.4-.8,2.6v1h.1Z"/>
          <path class="cls-1" d="M589.7,212c.4,0,.7.2.7.7v3.2c0,.4-.2.7-.7.7h-14.8c-.8,0-1.6.1-2.1.2-.5.1-.9.4-1.3.7-.3.3-.5.7-.6,1.3-.1.5-.2,1.3-.2,2v3.4c0,.8.1,1.5.2,2,.1.5.3.9.6,1.3.3.3.7.5,1.3.7.5.1,1.3.2,2.1.2h14.8c.4,0,.7.2.7.7v3.2c0,.4-.2.7-.7.7h-15.3c-1.8,0-3.1-.1-4.4-.4-1.1-.3-2.1-.7-2.8-1.4s-1.1-1.5-1.5-2.4c-.3-.9-.4-2.2-.4-3.5v-5.5c0-1.4.1-2.5.4-3.5.3-.9.8-1.8,1.5-2.4.7-.6,1.7-1,2.8-1.4,1.1-.3,2.6-.4,4.4-.4l15.3-.2h0Z"/>
          <path class="cls-1" d="M598.7,204.3c.5,0,.8.3.8.8v6.9h14.3c1.7,0,3.1.1,4.3.4,1.1.3,2.1.7,2.8,1.4s1.3,1.5,1.5,2.4c.3.9.4,2.2.4,3.5v12.4c0,.5-.3.8-.8.8h-3.8c-.5,0-.8-.3-.8-.8v-11c0-.8,0-1.5-.1-2s-.3-.9-.6-1.3-.7-.5-1.3-.7c-.5-.1-1.1-.2-2-.2h-14v15.3c0,.5-.3.8-.8.8h-3.8c-.5,0-.8-.3-.8-.8v-27c0-.5.3-.8.8-.8h3.9Z"/>
          <path class="cls-1" d="M647.6,212c1.7,0,3.1.1,4.3.4,1.1.3,2.1.7,2.8,1.4s1.3,1.5,1.5,2.4c.3.9.4,2.2.4,3.5v12.4c0,.5-.3.8-.8.8h-3.8c-.5,0-.8-.3-.8-.8v-11c0-.8-.1-1.5-.1-2-.1-.5-.3-.9-.6-1.3s-.7-.5-1.1-.7c-.5-.1-1.1-.2-2-.2h-10.1c-.8,0-1.5.1-2,.2-.5.1-.9.4-1.3.7s-.5.7-.6,1.3-.2,1.3-.2,2v11c0,.5-.3.8-.8.8h-3.8c-.6,0-.8-.3-.8-.8v-12.4c0-1.4.1-2.5.4-3.5.3-.9.8-1.8,1.5-2.4.7-.6,1.7-1,2.8-1.4,1.1-.3,2.6-.4,4.4-.4h10.8Z"/>
          <path class="cls-1" d="M680.9,212c1.7,0,3.1.1,4.3.4,1.1.3,2.1.7,2.8,1.4s1.3,1.5,1.5,2.4c.3.9.4,2.2.4,3.5v5.5c0,1.4-.1,2.5-.4,3.5-.3.9-.8,1.8-1.5,2.4-.7.6-1.7,1-2.8,1.4-1.1.3-2.6.4-4.3.4h-10.8c-1.8,0-3.1-.1-4.4-.4-1.1-.3-2.1-.7-2.8-1.4s-1.3-1.5-1.5-2.4c-.3-.9-.4-2.2-.4-3.5v-5.5c0-1.4.1-2.5.4-3.5.3-.9.8-1.8,1.5-2.4.7-.6,1.7-1,2.8-1.4,1.1-.3,2.6-.4,4.4-.4h10.8ZM666.5,224.3c0,.8.1,1.5.2,2,.1.5.3.9.6,1.3s.7.5,1.3.7c.5.1,1.3.2,2,.2h9.7c.8,0,1.6-.1,2.1-.2.5-.1.9-.4,1.3-.7s.5-.7.6-1.3.2-1.3.2-2v-3.6c0-.8-.1-1.5-.2-2-.1-.5-.3-.9-.6-1.3s-.7-.5-1.3-.7c-.5-.1-1.3-.2-2.1-.2h-9.7c-.8,0-1.5.1-2,.2-.5.1-.9.3-1.3.7-.3.3-.5.7-.6,1.3s-.2,1.1-.2,2v3.6Z"/>
          <path class="cls-1" d="M699.1,204.3c.5,0,.8.3.8.8v27c0,.5-.3.8-.8.8h-3.8c-.5,0-.8-.3-.8-.8v-27c0-.5.3-.8.8-.8h3.8Z"/>
          <path class="cls-1" d="M724.3,212c1.7,0,3.1.1,4.3.4,1.1.3,2.1.7,2.8,1.4.7.6,1.3,1.5,1.5,2.4.3.9.4,2.2.4,3.5v5.5c0,1.4-.1,2.5-.4,3.5-.3.9-.8,1.8-1.5,2.4-.7.6-1.7,1-2.8,1.4-1.1.3-2.6.4-4.3.4h-10.8c-1.8,0-3.1-.1-4.4-.4-1.1-.3-2.1-.7-2.8-1.4s-1.3-1.5-1.5-2.4c-.3-.9-.4-2.2-.4-3.5v-5.5c0-1.4.1-2.5.4-3.5.3-.9.8-1.8,1.5-2.4.7-.6,1.7-1,2.8-1.4,1.1-.3,2.6-.4,4.4-.4h10.8ZM709.9,224.3c0,.8.1,1.5.2,2,.1.5.3.9.6,1.3s.7.5,1.3.7,1.3.2,2,.2h9.7c.8,0,1.6-.1,2.1-.2s.9-.4,1.3-.7.5-.7.6-1.3.2-1.3.2-2v-3.6c0-.8-.1-1.5-.2-2-.1-.5-.3-.9-.6-1.3s-.7-.5-1.3-.7-1.3-.2-2.1-.2h-9.6c-.8,0-1.5.1-2,.2-.5.1-.9.3-1.3.7-.3.3-.5.7-.6,1.3s-.2,1.1-.2,2v3.6h-.1Z"/>
          <path class="cls-1" d="M757.4,212c1.8,0,3.1.1,4.4.4,1.1.3,2.1.7,2.8,1.4s1.3,1.4,1.5,2.4c.3.9.4,2.2.4,3.5v13.9c0,1.4-.1,2.6-.4,3.5-.3.9-.8,1.8-1.5,2.4-.7.6-1.7,1-2.8,1.4s-2.6.4-4.4.4h-18c-.4,0-.7-.2-.7-.7v-3.2c0-.4.2-.7.7-.7h17.4c.8,0,1.6-.1,2.1-.2.5-.1.9-.4,1.3-.7s.5-.7.6-1.3.2-1.3.2-2.1v-1h-14.4c-1.8,0-3.1-.1-4.4-.4-1.1-.3-2.1-.7-2.8-1.4s-1.3-1.5-1.5-2.4c-.3-.9-.4-2.2-.4-3.5v-4c0-1.4.1-2.6.4-3.5s.8-1.8,1.5-2.4c.7-.6,1.7-1,2.8-1.4,1.1-.3,2.6-.4,4.4-.4h10.8ZM743,223.7c0,.6.1,1.3.2,1.7.1.4.3.8.6,1.1s.7.5,1.3.6,1.3.2,2,.2h13.9v-7.2c0-1.4-.3-2.3-.8-2.9-.6-.5-1.7-.8-3.3-.8h-9.6c-.8,0-1.5.1-2,.2-.5.1-.9.3-1.3.6s-.5.6-.6,1.1c-.1.4-.2,1-.2,1.7v3.6h-.1Z"/>
          <path class="cls-1" d="M775.8,204.2c.5,0,.8.3.8.8v3.6c0,.6-.3.8-.8.8h-3.8c-.6,0-.8-.3-.8-.8v-3.6c0-.5.3-.8.8-.8h3.8ZM775.8,212c.5,0,.8.3.8.8v19.3c0,.5-.3.8-.8.8h-3.8c-.5,0-.8-.3-.8-.8v-19.3c0-.6.3-.8.8-.8h3.8Z"/>
          <path class="cls-1" d="M800.9,212c1.3,0,2.4.1,3.2.3s1.6.6,2,1c.5.5.8,1.1,1,2,.2.8.3,1.8.3,2.9v3.6c0,.8-.2,1.4-.5,1.7s-.9.5-1.7.5h-19.3v.9c0,1.1.3,2.1.8,2.6.6.5,1.7.8,3.3.8h15.9c.4,0,.7.2.7.7v3.2c0,.4-.2.7-.7.7h-16.5c-1.8,0-3.1-.1-4.4-.4-1.1-.3-2.1-.7-2.8-1.4s-1.1-1.5-1.5-2.4c-.3-.9-.4-2.2-.4-3.5v-5.5c0-1.4.1-2.5.4-3.5.3-.9.8-1.8,1.5-2.4s1.7-1,2.8-1.4,2.6-.4,4.4-.4l11.3-.2h0ZM786,220.7h15.5c.4,0,.6-.2.6-.6v-1.6c0-.8-.2-1.4-.5-1.7s-.9-.5-1.9-.5h-9.6c-1.7,0-2.8.2-3.3.7s-.8,1.4-.8,2.6v1Z"/>
          <path class="cls-1" d="M835.7,212c.4,0,.7.2.7.7v3c0,.4-.2.7-.7.7h-17.2c-.8,0-1.4.1-1.7.4-.3.3-.4.7-.4,1.3v.6c0,.5.1.9.4,1.3.3.3.8.4,1.7.4h12.8c2.1,0,3.6.4,4.6,1.4.9.9,1.4,2.2,1.4,3.8v2.1c0,.8-.1,1.6-.3,2.3-.2.6-.5,1.3-1,1.7-.5.4-1,.8-1.9,1-.7.2-1.7.4-2.8.4h-19.6c-.4,0-.7-.2-.7-.7v-3c0-.4.2-.7.7-.7h18.1c.8,0,1.4-.1,1.7-.4.3-.3.5-.7.5-1.5v-1c0-.5-.2-.9-.5-1.1-.3-.3-.8-.4-1.7-.4h-12.8c-2.1,0-3.6-.4-4.6-1.4-.9-.8-1.4-2.2-1.4-3.9v-1.7c0-.8.1-1.5.3-2.2.2-.6.5-1.3,1-1.7.5-.4,1-.8,1.9-1,.7-.2,1.7-.4,2.8-.4h18.6Z"/>
        </g>
        <g>
          <path class="cls-1" d="M70.8,96.3c7.1,0,13.1.7,18.3,2.2,5.1,1.4,9.2,3.6,12.4,6.6,3.2,3,5.6,6.8,7.2,11.5,1.6,4.7,2.3,10.1,2.3,16.4v17.7c0,6.3-.7,11.8-2.3,16.4-1.6,4.7-3.9,8.5-7.2,11.5-3.2,3-7.4,5.2-12.4,6.6-5.1,1.4-11.2,2.2-18.3,2.2H9.6c-2.6,0-4-1.3-4-3.9v-83.3c0-2.6,1.4-3.9,4-3.9,0,.1,61.2.1,61.2.1ZM25.6,167.5c0,1.1.5,1.7,1.7,1.7h43c3.9,0,7.1-.3,9.7-1,2.6-.7,4.7-1.9,6.4-3.4,1.7-1.6,2.8-3.6,3.4-6.2.7-2.6,1-5.8,1-9.6v-14.3c0-3.8-.3-7-1-9.6-.7-2.6-1.9-4.7-3.4-6.2-1.7-1.6-3.8-2.7-6.4-3.4-2.6-.7-5.8-1-9.7-1H27.3c-1.1,0-1.7.6-1.7,1.9v51.3h0Z"/>
          <path class="cls-1" d="M185.1,115.9c5.8,0,10.7.5,14.8,1.4,4,1,7.2,2.6,9.6,4.7,2.4,2.1,4.2,4.9,5.2,8.2,1,3.3,1.6,7.3,1.6,12v34.5c0,2.1-.1,3.8-.4,5.2-.3,1.3-.8,2.4-1.6,3.2-.7.8-1.8,1.3-2.9,1.7-1.3.3-2.8.4-4.7.4h-62.4c-3.9,0-7.1-.4-9.6-1.1-2.6-.7-4.7-1.9-6.3-3.3-1.6-1.4-2.7-3.4-3.3-5.7-.6-2.3-.9-5.1-.9-8.3v-6.2c0-2.7.3-5.1.9-7.2.6-2.1,1.8-3.9,3.3-5.4,1.6-1.4,3.7-2.6,6.3-3.3,2.6-.7,5.7-1.1,9.6-1.1h53.2v-2.5c0-2.1-.2-3.8-.6-5.3-.4-1.4-1.1-2.7-2.2-3.6s-2.5-1.6-4.3-2c-1.9-.4-4.2-.6-7.1-.6h-54.8c-1.6,0-2.4-.8-2.4-2.4v-10.9c0-1.6.8-2.4,2.4-2.4h56.5ZM193.8,172.9c1.4,0,2.4-.3,2.9-.9.5-.6.8-1.8.8-3.4v-11.5h-48c-2.7,0-4.6.5-5.7,1.7-1.1,1.1-1.7,2.7-1.7,4.8v2.7c0,2.4.5,4,1.7,5.2,1.1,1,3,1.7,5.7,1.7h44.2Z"/>
          <path class="cls-1" d="M239,115.9v-17.1c0-1.9.9-2.9,2.9-2.9h12.9c1.9,0,2.9.9,2.9,2.9v17.2h22.9c1.6,0,2.4.7,2.4,2.4v10.6c0,1.6-.8,2.4-2.4,2.4h-22.9v30.1c0,3.6.7,6.3,2.2,8,1.5,1.7,4.4,2.6,8.8,2.6h12.7c1.6,0,2.4.7,2.4,2.4v10.6c0,1.6-.7,2.4-2.4,2.4h-15.9c-5.2,0-9.6-.5-12.9-1.4-3.4-.9-6.2-2.5-8.2-4.5-2.1-2.1-3.4-4.8-4.3-8.1-.7-3.3-1.1-7.2-1.1-11.8v-30.1h-12.4c-1.6,0-2.4-.7-2.4-2.4v-10.9c0-1.6.7-2.4,2.4-2.4h12.4Z"/>
          <path class="cls-1" d="M352.6,115.9c5.8,0,10.7.5,14.8,1.4,4,1,7.2,2.6,9.6,4.7,2.4,2.1,4.2,4.9,5.2,8.2,1,3.3,1.6,7.3,1.6,12v34.5c0,2.1-.1,3.8-.4,5.2-.3,1.3-.8,2.4-1.6,3.2-.7.8-1.8,1.3-2.9,1.7-1.3.3-2.8.4-4.7.4h-62.4c-3.9,0-7.1-.4-9.6-1.1-2.6-.7-4.7-1.9-6.3-3.3s-2.7-3.4-3.3-5.7c-.6-2.4-.9-5.1-.9-8.3v-6.2c0-2.7.3-5.1.9-7.2.6-2.1,1.8-3.9,3.3-5.4,1.6-1.4,3.7-2.6,6.3-3.3,2.6-.7,5.7-1.1,9.6-1.1h53.3v-2.5c0-2.1-.2-3.8-.6-5.3-.4-1.4-1.1-2.7-2.2-3.6s-2.5-1.6-4.3-2c-1.9-.4-4.2-.6-7.1-.6h-54.8c-1.6,0-2.4-.8-2.4-2.4v-10.9c0-1.6.8-2.4,2.4-2.4h56.4ZM361.3,172.9c1.4,0,2.4-.3,2.9-.9.5-.6.8-1.8.8-3.4v-11.5h-48c-2.7,0-4.6.5-5.7,1.7s-1.7,2.7-1.7,4.8v2.7c0,2.4.5,4,1.7,5.2s3,1.7,5.7,1.7h44.2Z"/>
          <path class="cls-2" d="M472.5,96.3c10,0,17.2,2.3,21.6,6.7,4.4,4.5,6.6,11.2,6.6,20v9.6c0,8.8-2.2,15.5-6.6,20-4.4,4.5-11.6,6.7-21.6,6.7h-54.2v25c0,1.9-.9,2.9-2.9,2.9h-14.2c-2,0-3-.9-3-2.9v-84.1c0-2.6,1.4-3.9,4-3.9h70.4ZM418.2,142.2h50.2c4.5,0,7.6-.9,9.4-2.9,1.9-1.9,2.7-4.8,2.7-8.7v-5c0-3.9-.9-6.8-2.7-8.7-1.9-1.9-5-2.9-9.4-2.9h-48.5c-1.1,0-1.7.5-1.7,1.6v26.6h0Z"/>
          <path class="cls-2" d="M580.3,115.9c5.8,0,10.7.5,14.8,1.4,4,1,7.2,2.6,9.6,4.7s4.2,4.9,5.2,8.2c1,3.3,1.6,7.3,1.6,12v18.7c0,4.7-.5,8.7-1.6,12-1,3.3-2.8,6.1-5.2,8.2s-5.6,3.6-9.6,4.7c-4,.9-9,1.4-14.8,1.4h-37c-5.9,0-10.8-.5-14.9-1.4-4-.9-7.2-2.5-9.6-4.7-2.4-2.1-4.2-4.9-5.2-8.2-1-3.3-1.6-7.3-1.6-12v-18.7c0-4.7.5-8.7,1.6-12,1-3.3,2.8-6.1,5.2-8.2,2.4-2.1,5.6-3.7,9.6-4.7s9-1.4,14.9-1.4h37ZM530.8,157.7c0,2.8.2,5.1.6,6.9s1.1,3.3,2.3,4.3c1,1.1,2.6,1.9,4.4,2.4,1.9.5,4.2.7,7,.7h33.4c2.9,0,5.2-.2,7.1-.7s3.3-1.2,4.4-2.4c1-1,1.9-2.5,2.3-4.3.4-1.9.6-4.1.6-6.9v-12.3c0-2.7-.2-5-.6-6.7-.4-1.9-1.1-3.3-2.3-4.4-1-1.1-2.6-1.9-4.4-2.4-1.9-.4-4.2-.6-7.1-.6h-33.4c-2.8,0-5.1.2-7,.6-1.9.4-3.3,1.2-4.4,2.4-1,1.1-1.9,2.6-2.3,4.4-.4,1.9-.6,4-.6,6.7,0-.1,0,12.3,0,12.3Z"/>
          <path class="cls-2" d="M642.8,115.9c1.9,0,2.9,1,2.9,3v65.4c0,1.9-.9,2.9-2.9,2.9h-12.8c-1.9,0-2.9-.9-2.9-2.9v-65.4c0-2,.9-3,2.9-3,0,0,12.8,0,12.8,0Z"/>
          <path class="cls-2" d="M730.7,115.9c5.8,0,10.7.5,14.8,1.4,4,1,7.2,2.6,9.6,4.7,2.4,2.1,4.2,4.9,5.2,8.2,1,3.3,1.6,7.3,1.6,12v42.2c0,1.9-.9,2.9-2.9,2.9h-12.8c-1.9,0-2.9-.9-2.9-2.9v-37.6c0-2.7-.2-5-.5-6.8-.3-1.9-1-3.3-2-4.4-1-1-2.4-1.9-4.2-2.4s-4-.7-6.8-.7h-34.8c-2.8,0-5.1.2-7,.7s-3.3,1.2-4.4,2.4c-1.1,1.1-1.9,2.6-2.3,4.4s-.6,4.1-.6,6.8v37.6c0,1.9-.9,2.9-2.9,2.9h-12.8c-2,0-3-.9-3-2.9v-42.1c0-4.7.5-8.7,1.6-12,1-3.3,2.8-6.1,5.2-8.2,2.4-2.1,5.6-3.7,9.6-4.7,4-.9,9-1.4,14.9-1.4h37.6Z"/>
          <path class="cls-2" d="M787,115.9v-17.1c0-1.9.9-2.9,2.9-2.9h12.9c1.9,0,2.9.9,2.9,2.9v17.2h22.9c1.6,0,2.4.7,2.4,2.4v10.6c0,1.6-.8,2.4-2.4,2.4h-22.9v30.1c0,3.6.7,6.3,2.2,8,1.5,1.7,4.4,2.6,8.8,2.6h12.7c1.6,0,2.4.7,2.4,2.4v10.6c0,1.6-.7,2.4-2.4,2.4h-15.9c-5.2,0-9.6-.5-12.9-1.4-3.4-.9-6.2-2.5-8.2-4.5-2.1-2.1-3.4-4.8-4.3-8.1-.7-3.3-1.1-7.2-1.1-11.8v-30.1h-12.4c-1.6,0-2.4-.7-2.4-2.4v-10.9c0-1.6.8-2.4,2.4-2.4h12.4Z"/>
          <path class="cls-2" d="M622.5,29.6c-1-3.9-1.3-7.8-.8-11.8,1.1-7.7,6-12.8,13.1-13.7,7.2-.9,14.2.8,20.7,3.9,24.4,11.4,43.6,30,57.5,56.1,3.3,6.3,5.7,13,6.4,20.4,1.2,11.8-3.7,19-13.9,20.5-4,.6-8,0-12-1.3,2.2-.3,4.4,0,6.5-.4,6.4-1.3,9.9-6.2,9.5-13.7-.2-6.5-2.3-12.5-5.1-18-8-16.4-19.3-29.3-32.4-40.2-8.8-7.3-18.2-13.4-28.8-16.4-3.9-1.2-7.8-1.7-11.8-.8-5.9,1.3-9.1,5.6-9.2,12.6.3.9.4,1.9.1,2.8"/>
          <path class="cls-2" d="M628.5,46.3c-1.3-2.8-2-5.9-2.1-9.1-.2-6.4,3.3-10.8,9.1-11.2,4.7-.4,9.2.8,13.4,3,19.6,9.6,35.2,24.8,45.8,46.4,2.2,4.5,3.8,9.2,3.5,14.6-.1,5.4-2.7,8.9-7.1,9.9-4.8,1.2-9.2-.1-13.6-1.9,2,.1,4,.6,6,.4,4.5-.5,7-3.9,6.5-9.1-.3-4-1.7-7.6-3.3-11-5.5-11.6-13.5-20.8-22.5-28.8-7-6.2-14.4-11.4-23-14.1-2.1-.6-4.3-1-6.4-.8-4.9.5-7.3,4.1-6.8,9.8.1.5.2,1.3.4,2.1"/>
          <path class="cls-1" d="M636.2,110.4c-6.8,0-11.7-5-11.7-11.7s5-11.5,11.9-11.5,11.7,4.8,11.7,11.5-5,11.7-11.9,11.7"/>
          <path class="cls-2" d="M643.4,49.6c2.6.1,5.7,1.4,8.5,3.1,8.2,4.9,15,11.6,20.2,20.4,1.7,2.8,3,5.9,3.4,9.4.6,4.1-1.3,6.8-4.9,7.1-2.8.3-5.3-.5-7.8-1.8-9.9-5-17.7-12.7-23.5-23.2-1.2-2.2-2.1-4.6-2.6-7.2-.8-5,1.2-7.8,6.5-7.7M666.5,86.2c2.6,0,3.4-1.2,3.2-3.7-.2-1.8-.9-3.5-1.8-5-5.1-9-11.9-15.8-20.3-20.5-1.6-.9-3.1-1.5-4.9-1.5s-3,1.2-2.8,3.6c.2,2.4,1.3,4.5,2.4,6.4,4.8,7.8,10.9,13.9,18.1,18.4,2.1,1.3,4.1,2.2,6,2.4"/>
        </g>
      </g>
    </g>
  </g>
</svg>